<svg width="66" height="37" viewBox="0 0 66 37" fill="none" xmlns="http://www.w3.org/2000/svg">
<path d="M43.3463 3.94392L43.2045 4.20588H42.9066H0.499996V31.0983L3.1335 35.5H56.5V0.5H45.2107L43.3463 3.94392Z" fill="#D9D9D9" fill-opacity="0.05" stroke="#B026FF"/>
<path d="M63.4991 32.6184H65.65V35.69H60.0977V0.350033H65.65V24.1193L63.3042 25.6916L63.1491 25.7956V25.9824V32.2684V32.6184H63.4991Z" stroke="#B026FF" stroke-width="0.7"/>
<path d="M11 12H43V14H11.8174L11 12Z" fill="#E3B1FF"/>
<path d="M11 19H43V21H11.5L11 19Z" fill="white"/>
<path d="M11 19H43V21H11.5L11 19Z" fill="#E3B1FF"/>
<path d="M11 26H43V28H11.5L11 26Z" fill="white"/>
<path d="M11 26H43V28H11.5L11 26Z" fill="#E3B1FF"/>
</svg>
